<svg width="450" height="150" xmlns="http://www.w3.org/2000/svg" version="1.1" xml:space="preserve">
 <g>
  <title>Layer 1</title>
  <path class="st0" d="m275.4765,99.37463l-0.14407,0c0.07203,0 0.07203,0.07203 0.14407,0.07203l0.07203,0l-0.07203,-0.07203zm0,0.07203c-0.57627,0 -2.08896,0.28813 -3.6737,0.28813c-4.97029,0 -6.69909,-2.30506 -6.69909,-5.33046l0,-20.02525l10.15669,0c0.57627,0 1.00847,-0.50423 1.00847,-1.22457l0,-10.87702c0,-0.57627 -0.50423,-1.0805 -1.00847,-1.0805l-10.15669,0l0,-13.54225c0,-0.50423 -0.36017,-0.79237 -0.93643,-0.79237l-13.83039,0c-0.57627,0 -0.8644,0.36017 -0.8644,0.79237l0,13.90242c0,0 -6.98723,1.7288 -7.41943,1.80083c-0.50423,0.14407 -0.79237,0.57627 -0.79237,1.0805l0,8.71602c0,0.72033 0.50423,1.22457 1.0805,1.22457l7.05926,0l0,21.03371c0,15.63122 10.87702,17.21595 18.29645,17.21595c3.38556,0 7.49146,-1.0805 8.13976,-1.44067c0.36017,-0.14407 0.57627,-0.57627 0.57627,-1.00847l0,-9.58042c0,-0.57627 -0.36017,-1.00847 -0.93643,-1.15253l0,0l0,0.00001zm151.70204,-14.04648c0,-11.59735 -4.68216,-13.11005 -9.58042,-12.60582c-3.81776,0.2161 -6.91519,2.161 -6.91519,2.161l0,22.54641c0,0 3.09743,2.161 7.77959,2.30506c6.55503,0.14407 8.71602,-2.23303 8.71602,-14.40665l0,0zm15.55918,-1.00847c0,21.97014 -7.13129,28.23704 -19.52101,28.23704c-10.51686,0 -16.13545,-5.33046 -16.13545,-5.33046s-0.2161,2.95336 -0.57627,3.31353c-0.2161,0.36017 -0.50423,0.50423 -0.93643,0.50423l-9.43636,0c-0.6483,0 -1.22457,-0.50423 -1.22457,-1.0805l0.14407,-71.09682c0,-0.57627 0.50423,-1.0805 1.0805,-1.0805l13.61429,0c0.57627,0 1.0805,0.50423 1.0805,1.0805l0,24.13114c0,0 5.25843,-3.38556 12.96599,-3.38556l-0.07203,-0.14407c7.63553,0 19.01678,2.88133 19.01678,24.85147l0,0l-0.00001,0zm-55.82577,-23.12268l-13.47022,0c-0.72033,0 -1.0805,0.50423 -1.0805,1.22457l0,34.79206c0,0 -3.52963,2.44913 -8.35586,2.44913c-4.75419,0 -6.19486,-2.161 -6.19486,-6.98723l0,-30.39803c0,-0.57627 -0.50423,-1.0805 -1.0805,-1.0805l-13.68632,0c-0.57627,0 -1.0805,0.50423 -1.0805,1.0805l0,32.77513c0,14.04648 7.85162,17.57611 18.65661,17.57611c8.93212,0 16.13545,-4.89826 16.13545,-4.89826s0.36017,2.52116 0.50423,2.88133c0.14407,0.28813 0.57627,0.57627 1.00847,0.57627l8.57196,0c0.72033,0 1.0805,-0.50423 1.0805,-1.0805l0.14407,-47.83008c0.07203,-0.57627 -0.50423,-1.0805 -1.15253,-1.0805l0,0zm-151.70204,-0.07203l-13.61429,0c-0.57627,0 -1.0805,0.57627 -1.0805,1.2966l0,46.96568c0,1.2966 0.8644,1.7288 1.9449,1.7288l12.31769,0c1.2966,0 1.58473,-0.57627 1.58473,-1.7288l0,-47.18178c-0.07203,-0.57627 -0.57627,-1.0805 -1.15253,-1.0805l0,0zm-6.77113,-21.68201c-4.89826,0 -8.86009,3.8898 -8.86009,8.86009c0,4.89826 3.8898,8.86009 8.86009,8.86009c4.82623,0 8.71602,-3.8898 8.71602,-8.86009c0,-4.89826 -3.8898,-8.86009 -8.71602,-8.86009l0,0zm105.60075,-1.58473l-13.54225,0c-0.57627,0 -1.0805,0.50423 -1.0805,1.0805l0,26.14807l-21.17778,0l0,-26.14807c0,-0.57627 -0.50423,-1.0805 -1.0805,-1.0805l-13.61429,0c-0.57627,0 -1.0805,0.50423 -1.0805,1.0805l0,71.09682c0,0.57627 0.57627,1.0805 1.0805,1.0805l13.61429,0c0.57627,0 1.0805,-0.50423 1.0805,-1.0805l0,-30.39803l21.17778,0l-0.14407,30.39803c0,0.57627 0.50423,1.0805 1.0805,1.0805l13.61429,0c0.57627,0 1.0805,-0.50423 1.0805,-1.0805l0,-71.09682c0.07203,-0.57627 -0.4322,-1.0805 -1.00847,-1.0805l0,0zm-120.79977,31.47853l0,36.73696c0,0.2161 -0.07203,0.72033 -0.36017,0.79237c0,0 -7.99569,5.69063 -21.17778,5.69063c-15.91935,0 -34.8641,-4.97029 -34.8641,-37.88949c0,-32.9192 16.49562,-39.69032 32.63106,-39.61829c13.97445,0 19.59305,3.16946 20.45744,3.74573c0.2161,0.36017 0.36017,0.57627 0.36017,0.8644l-2.5932,11.45329c0,0.57627 -0.57627,1.2966 -1.2966,1.0805c-2.30506,-0.72033 -5.76266,-2.08896 -13.90242,-2.08896c-9.43636,0 -19.52101,2.66523 -19.52101,23.91504c0,21.17778 9.58042,23.69894 16.49562,23.69894c5.90673,0 7.99569,-0.72033 7.99569,-0.72033l0,-14.69478l-9.43636,0c-0.72033,0 -1.22457,-0.50423 -1.22457,-1.0805l0,-11.81345c0,-0.57627 0.50423,-1.0805 1.22457,-1.0805l23.98707,0c0.72033,-0.07203 1.22457,0.4322 1.22457,1.00847l0,0l0.00002,-0.00003zm0,0" fill="#24292E" id="svg_1" stroke="null"/>
  <path class="st1" d="m78.37224,3.92521c-39.89003,0 -72.2,32.30997 -72.2,72.2c0,31.93097 20.65564,58.93491 49.36509,68.50472c3.60052,0.5685 5.02178,-1.51601 5.02178,-3.41102c0,-1.70551 -0.09475,-7.39055 -0.09475,-13.45459c-18.09737,3.31627 -22.83491,-4.45328 -24.25617,-8.43281c-0.85276,-2.08451 -4.35853,-8.52756 -7.39055,-10.23307c-2.55827,-1.32651 -6.15879,-4.73753 -0.09475,-4.83228c5.68504,-0.09475 9.75932,5.21129 11.08583,7.39055c6.5378,10.89633 16.86562,7.8643 21.03465,5.96929c0.66325,-4.64278 2.55827,-7.8643 4.64278,-9.66457c-16.01286,-1.80026 -32.87848,-8.05381 -32.87848,-35.62625c0,-7.8643 2.84252,-14.4021 7.39055,-19.42388c-0.75801,-1.80026 -3.22152,-9.19081 0.75801,-19.13963c0,0 6.06404,-1.89501 19.89764,7.39055c5.77979,-1.61076 11.93858,-2.46352 18.00262,-2.46352c6.15879,0 12.22283,0.85276 18.00262,2.46352c13.8336,-9.38031 19.80289,-7.39055 19.80289,-7.39055c3.97953,9.94882 1.42126,17.33937 0.75801,19.13963c4.64278,5.02178 7.39055,11.46483 7.39055,19.42388c0,27.66719 -16.86562,33.82598 -32.97323,35.62625c2.65302,2.27402 4.92703,6.5378 4.92703,13.35984c0,9.66457 -0.09475,17.43412 -0.09475,19.80289c0,1.89501 1.32651,4.16903 4.92703,3.41102c29.3727,-9.94882 49.17559,-37.52126 49.17559,-68.50472c0,-39.79527 -32.30997,-72.10525 -72.2,-72.10525l0,0l0.00001,0zm0,0" fill-rule="evenodd" clip-rule="evenodd" fill="#24292E" id="svg_2" stroke="null"/>
 </g>

</svg>