<?xml version="1.0" standalone="no"?>
<!DOCTYPE svg PUBLIC "-//W3C//DTD SVG 1.1//EN" "http://www.w3.org/Graphics/SVG/1.1/DTD/svg11.dtd">
<svg xmlns="http://www.w3.org/2000/svg">
<defs >
<font id="FiraCode" horiz-adv-x="1201" ><font-face
    font-family="Fira Code Light Light"
    units-per-em="2000"
    panose-1="2 11 8 9 5 0 0 2 0 4"
    ascent="1980"
    descent="-644"
    alphabetic="0" />
<glyph unicode=" " horiz-adv-x="1200" />
<glyph unicode="!" horiz-adv-x="1200" d="M666 1374L655 437H535L522 1374H666ZM597 220Q650 220 684 186T719 102Q719 51 685 16T597 -20Q546 -20 513 15T479 102Q479 151 512 185T597 220Z" />
<glyph unicode="&quot;" horiz-adv-x="1200" d="M378 967L348 1475H532L503 967H378ZM698 967L669 1475H852L822 967H698Z" />
<glyph unicode="#" horiz-adv-x="1200" d="M898 918L836 461H1009V354H820L776 0H667L714 354H393L347 0H238L286 354H116V461H300L363 918H190V1026H377L424 1374H532L482 1026H806L852 1374H961L911 1026H1083V918H898ZM408 461H729L792 918H469L408 461Z" />
<glyph unicode="$" horiz-adv-x="1200" d="M689 1692V1390Q808 1377 899 1331T1049 1229L961 1139Q903 1195 836 1230T689 1276V788Q780 759 865 708T1007 576T1063 371Q1063 281 1022 200T897 62T689 -12V-301H562V-18Q422 -9 321 48T154 170L239 261Q300 196
380 151T562 98V692Q399 747 303 837T207 1065Q207 1137 244 1207T361 1329T562 1391V1692H689ZM689 651V107Q915 152 915 379Q915 471 865 536T689 651ZM562 1271Q474 1256 415 1205T355 1057Q355 982 399 928T562 827V1271Z" />
<glyph unicode="%" horiz-adv-x="1200" d="M1056 1409L1146 1339L121 -35L34 35L1056 1409ZM862 527Q800 527 752 478T703 314Q703 209 749 152T862 95Q924 95 971 146T1018 314Q1018 430 971 478T862 527ZM344 1283Q282 1283 234 1232T185 1071Q185 965 231 908T344
851Q406 851 453 902T500 1071Q500 1187 453 1235T344 1283ZM344 1393Q439 1393 504 1347T604 1228T639 1071Q639 989 605 914T505 792T344 744Q250 744 183 791T81 914T46 1071Q46 1156 81 1229T183 1348T344 1393ZM862 637Q957 637 1022 591T1122 472T1157 314Q1157
232 1123 158T1023 36T862 -12Q768 -12 701 35T599 157T564 314Q564 400 599 473T701 592T862 637Z" />
<glyph unicode="&amp;" horiz-adv-x="1200" d="M558 1391Q638 1391 715 1364T876 1245L796 1169Q743 1231 684 1261T544 1291Q429 1291 372 1230T315 1075Q315 1012 350 956T446 866T579 831H1144V720H951V169Q925 132 875 88T745 12T550 -20Q395 -20 300 41T161
196T117 387Q117 539 198 640T433 772V777Q339 798 287 844T213 948T191 1063Q191 1150 234 1224T360 1345T558 1391ZM840 720H553Q442 720 373 668T272 539T239 388Q239 314 270 245T370 132T551 88Q644 88 719 119T840 209V720Z" />
<glyph unicode="&apos;" horiz-adv-x="1200" d="M538 967L509 1475H692L663 967H538Z" />
<glyph unicode="(" horiz-adv-x="1200" d="M397 700Q397 479 448 322T597 41T839 -200L779 -270Q616 -138 501 -3T324 301T263 700Q263 931 324 1099T500 1403T779 1670L839 1600Q729 1508 646 1418T508 1226T425 995T397 700Z" />
<glyph unicode=")" horiz-adv-x="1200" d="M803 700Q803 867 776 995T693 1225T554 1418T361 1600L421 1670Q585 1539 700 1404T876 1100T937 700Q937 470 876 302T700 -2T421 -270L361 -200Q504 -82 602 41T752 321T803 700Z" />
<glyph unicode="*" horiz-adv-x="1200" d="M534 1149L538 735L148 864L109 743L501 618L256 286L359 211L600 547L841 211L944 286L699 618L1091 743L1052 864L662 735L666 1149H534Z" />
<glyph unicode="+" horiz-adv-x="1200" d="M660 1071V676H1050V565H660V174H535V565H150V676H535V1071H660Z" />
<glyph unicode="," horiz-adv-x="1200" d="M600 304Q662 304 703 262T745 161Q745 132 741 102T720 39L553 -345H419L513 41Q488 61 473 93T457 161Q457 220 498 262T600 304Z" />
<glyph unicode="-" horiz-adv-x="1200" d="M209 568V684H991V568H209Z" />
<glyph unicode="." horiz-adv-x="1200" d="M437 144Q437 189 458 225T515 283T597 304Q645 304 682 283T740 226T761 144Q761 98 740 61T682 2T597 -20Q551 -20 515 1T458 60T437 144Z" />
<glyph unicode="/" horiz-adv-x="1200" d="M222 -201L119 -156L980 1614L1081 1563L222 -201Z" />
<glyph unicode="0" horiz-adv-x="1200" d="M600 1393Q815 1393 925 1211T1036 687Q1036 344 926 162T600 -20Q386 -20 275 162T164 687Q164 1029 275 1211T600 1393ZM600 1285Q467 1285 387 1145T306 687Q306 481 338 349T436 153T600 89Q690 89 756 151T859 345T895
687Q895 894 864 1026T767 1222T600 1285ZM817 1235L850 1096L392 172L338 282L817 1235Z" />
<glyph unicode="1" horiz-adv-x="1200" d="M719 1374V40H592V1231L267 1035L212 1126L611 1374H719ZM1015 107V0H252V107H1015Z" />
<glyph unicode="2" horiz-adv-x="1200" d="M535 1393Q657 1393 745 1344T882 1209T931 1012Q931 914 897 821T788 625T593 398T298 114H963L946 0H158V111Q319 265 431 380T615 581T727 739T782 875T798 1013Q798 1139 728 1211T534 1283Q425 1283 358 1248T222
1134L130 1207Q213 1305 308 1349T535 1393Z" />
<glyph unicode="3" horiz-adv-x="1200" d="M535 1393Q659 1393 750 1347T892 1223T943 1052Q943 970 906 902T808 789T679 734Q755 730 825 690T941 577T987 399Q987 279 929 184T766 35T527 -20Q423 -20 312 21T123 157L217 227Q275 158 359 124T528 89Q684 89
769 171T855 392Q855 498 815 558T707 644T555 670H443L459 777H537Q606 777 669 804T774 889T815 1035Q815 1160 733 1224T537 1288Q446 1288 379 1257T241 1159L169 1243Q255 1323 348 1358T535 1393Z" />
<glyph unicode="4" horiz-adv-x="1200" d="M570 1393L672 1345L294 452H1042V348H160V444L570 1393ZM852 859V0H732V420L750 859H852Z" />
<glyph unicode="5" horiz-adv-x="1200" d="M957 1374L935 1268H380V793Q447 830 504 843T628 857Q742 857 825 808T954 663T1000 430Q1000 294 946 193T793 36T558 -20Q441 -20 350 20T177 134L257 215Q324 151 398 120T567 89Q711 89 790 176T869 438Q869 557
833 624T737 720T603 749Q535 749 487 737T374 703H262V1374H957Z" />
<glyph unicode="6" horiz-adv-x="1200" d="M662 1393Q738 1393 803 1373T926 1315L876 1224Q827 1253 772 1268T656 1283Q537 1283 456 1203T335 979T297 643L299 588Q300 328 374 209T614 90Q757 90 829 187T902 461Q902 639 827 706T632 773Q511 773 423 701T283
517L278 650Q347 777 435 832T641 887Q747 887 835 842T978 703T1032 461Q1032 305 974 198T821 36T616 -20Q494 -20 410 26T275 159T200 373T176 658Q176 885 233 1049T399 1303T662 1393Z" />
<glyph unicode="7" horiz-adv-x="1200" d="M441 -15L327 19L869 1264H212V1374H994V1271L441 -15Z" />
<glyph unicode="8" horiz-adv-x="1200" d="M999 1048Q999 946 934 872T753 734Q886 683 970 591T1055 367Q1055 253 998 166T837 29T597 -20Q456 -20 355 30T199 168T145 365Q145 495 222 582T427 728Q317 776 259 851T201 1041Q201 1137 240 1204T341 1313T472
1374T599 1393Q667 1393 737 1374T866 1314T962 1207T999 1048ZM920 364Q920 464 867 521T724 615T520 691Q458 665 403 624T314 519T280 359Q280 232 359 161T593 90Q749 90 834 167T920 364ZM327 1038Q327 950 368 903T484 827T659 766Q763 822 818 881T873 1045Q873
1158 801 1223T599 1288Q471 1288 399 1222T327 1038Z" />
<glyph unicode="9" horiz-adv-x="1200" d="M575 1390Q719 1390 815 1322T958 1127T1006 824Q1006 613 966 472T842 238T624 82T305 -37L274 63Q475 121 607 199T806 400T872 708L876 800Q876 980 842 1085T741 1235T576 1280Q427 1280 353 1193T278 941Q278 775
349 698T552 621Q665 621 746 687T897 864V727Q839 635 751 574T541 513Q425 513 336 565T197 715T147 951Q147 1098 205 1195T360 1341T575 1390Z" />
<glyph unicode=":" horiz-adv-x="1200" d="M451 129Q451 188 493 232T597 276Q662 276 704 232T747 129Q747 66 705 23T597 -20Q535 -20 493 23T451 129ZM451 859Q451 921 493 963T597 1005Q662 1005 704 963T747 859Q747 798 705 754T597 710Q535 710 493 754T451 859Z" />
<glyph unicode=";" horiz-adv-x="1200" d="M597 312Q662 312 704 269T747 166Q747 135 742 105T720 39L551 -350H414L509 43Q451 86 451 165Q451 225 493 268T597 312ZM597 1005Q662 1005 704 963T747 859Q747 798 705 754T597 710Q535 710 493 754T451 859Q451
921 493 963T597 1005Z" />
<glyph unicode="&lt;" horiz-adv-x="1200" d="M951 1177L1016 1075L293 625L1016 169L941 76L187 549V705L951 1177Z" />
<glyph unicode="=" horiz-adv-x="1200" d="M970 863V748H230V863H970ZM970 496V380H230V496H970Z" />
<glyph unicode="&gt;" horiz-adv-x="1200" d="M251 1177L1016 705V549L262 76L187 173L910 625L187 1080L251 1177Z" />
<glyph unicode="?" horiz-adv-x="1200" d="M601 1393Q715 1393 799 1350T930 1237T976 1092Q976 997 940 937T851 835T745 753T655 657T619 515V437H485V525Q485 620 521 683T612 793T720 879T810 968T847 1087Q847 1182 773 1233T588 1285Q516 1285 438 1249T295
1132L199 1200Q287 1303 389 1348T601 1393ZM557 220Q610 220 644 186T679 102Q679 51 645 16T557 -20Q507 -20 473 15T439 102Q439 151 473 185T557 220Z" />
<glyph unicode="@" horiz-adv-x="1200" d="M565 1393Q724 1393 831 1344T1004 1211T1104 1020T1151 795T1163 563Q1163 311 1141 147T1056 -98T876 -179Q812 -179 766 -147T692 -67T651 29T642 108H634Q617 63 585 18T500 -58T363 -89Q257 -89 192 -30T97 133T67
370Q67 635 171 757T450 879Q517 879 574 866T716 808V220Q716 102 738 42T796 -40T875 -62Q927 -62 955 -10T996 131T1010 332T1012 565Q1012 704 997 829T936 1052T803 1205T572 1261Q478 1261 361 1227T113 1077L25 1178Q159 1294 300 1343T565 1393ZM462 777Q308
777 252 671T195 370Q195 270 211 190T266 63T372 16Q449 16 495 50T566 129T605 202V744Q540 777 462 777Z" />
<glyph unicode="A" horiz-adv-x="1200" d="M887 367H301L180 0H60L515 1374H684L1140 0H1008L887 367ZM344 483H845L596 1255L344 483Z" />
<glyph unicode="B" horiz-adv-x="1200" d="M923 377Q923 491 879 551T764 635T609 658H344V115H603Q654 115 710 125T814 164T893 243T923 377ZM868 1027Q868 1155 789 1208T580 1262H344V779H599Q726 779 797 838T868 1027ZM1060 389Q1060 279 1016 204T900 84T739
20T560 0H217V1374H526Q612 1374 696 1358T848 1303T958 1197T1000 1029Q1000 939 963 877T868 779T744 728Q821 715 893 681T1013 577T1060 389Z" />
<glyph unicode="C" horiz-adv-x="1200" d="M716 1393Q847 1393 934 1361T1101 1264L1023 1175Q956 1232 883 1254T730 1277Q610 1277 507 1222T340 1039T277 687Q277 470 337 341T498 155T724 98Q843 98 919 132T1050 211L1122 119Q1064 63 967 22T726 -20Q565
-20 433 61T222 300T144 687Q144 919 223 1076T433 1313T716 1393Z" />
<glyph unicode="D" horiz-adv-x="1200" d="M953 694Q953 886 911 999T800 1169T654 1243T502 1261H313V110H505Q581 110 659 134T804 221T912 398T953 694ZM1092 694Q1092 476 1036 340T889 129T691 28T484 0H186V1374H463Q580 1374 692 1348T894 1249T1038 1043T1092
694Z" />
<glyph unicode="E" horiz-adv-x="1200" d="M398 1260V757H918V640H398V111H1039V0H270V1374H1016L999 1260H398Z" />
<glyph unicode="F" horiz-adv-x="1200" d="M421 1260V743H977V632H421V0H295V1374H1076L1059 1260H421Z" />
<glyph unicode="G" horiz-adv-x="1200" d="M620 -20Q467 -20 351 57T170 292T105 687Q105 865 152 997T278 1218T457 1349T661 1393Q791 1393 875 1357T1040 1247L955 1159Q892 1219 819 1247T657 1275Q581 1275 508 1246T375 1149T281 969T245 688Q245 483 290
353T423 160T640 98Q718 98 789 116T928 172V622H629L611 741H1060V94Q970 48 869 14T620 -20Z" />
<glyph unicode="H" horiz-adv-x="1200" d="M887 0V674H313V0H186V1374H313V778H887V1374H1014V0H887Z" />
<glyph unicode="I" horiz-adv-x="1200" d="M977 1374V1265H665V109H977V0H223V109H535V1265H223V1374H977Z" />
<glyph unicode="J" horiz-adv-x="1200" d="M975 1374V445Q975 369 957 288T890 136T755 23T531 -21Q439 -21 342 10T165 103L228 192Q323 133 400 114T534 95Q689 95 768 194T848 459V1262H445V1374H975Z" />
<glyph unicode="K" horiz-adv-x="1200" d="M364 0H237V1374H364V0ZM374 734L965 1374H1122L541 741L1160 0H993L374 734Z" />
<glyph unicode="L" horiz-adv-x="1200" d="M296 0V1374H424V124H1061L1045 0H296Z" />
<glyph unicode="M" horiz-adv-x="1200" d="M1053 1374L1131 0H1000L949 757Q945 826 942 904T936 1054T933 1180T930 1251L675 250H523L250 1251Q250 1233 250 1177T249 1047T247 896T242 760L197 0H69L147 1374H360L604 417L837 1374H1053Z" />
<glyph unicode="N" horiz-adv-x="1200" d="M817 0L297 1239Q296 1223 298 1173T303 1050T309 898T312 740V0H186V1374H369L903 127Q905 145 901 220T893 405T888 638V1374H1014V0H817Z" />
<glyph unicode="O" horiz-adv-x="1200" d="M1093 685Q1093 480 1038 321T874 71T600 -20Q437 -20 327 68T162 315T107 682Q107 888 162 1048T327 1301T600 1393Q764 1393 873 1304T1038 1055T1093 685ZM957 685Q957 966 874 1120T600 1275Q409 1275 326 1119T243
682Q243 402 329 250T600 98Q790 98 873 250T957 685Z" />
<glyph unicode="P" horiz-adv-x="1200" d="M962 957Q962 1074 916 1141T791 1236T616 1265H391V637H602Q705 637 786 663T914 759T962 957ZM1102 960Q1102 799 1034 704T847 568T575 526H391V0H263V1374H589Q825 1374 963 1274T1102 960Z" />
<glyph unicode="Q" horiz-adv-x="1200" d="M1095 685Q1095 462 1032 298T812 45Q905 26 971 -13T1082 -117T1160 -280L1003 -346Q962 -239 909 -166T777 -54T580 -16Q426 -16 319 71T155 316T99 682Q99 888 155 1048T323 1301T597 1393Q761 1393 871 1304T1038
1055T1095 685ZM963 685Q963 967 876 1121T597 1276Q406 1276 319 1121T232 682Q232 401 322 250T597 98Q787 98 875 250T963 685Z" />
<glyph unicode="R" horiz-adv-x="1200" d="M1061 999Q1061 894 1014 817T887 690T707 619L1129 0H969L571 609H357V0H229V1374H558Q805 1374 933 1278T1061 999ZM920 999Q920 1141 839 1202T584 1264H357V719H580Q741 719 830 782T920 999Z" />
<glyph unicode="S" horiz-adv-x="1200" d="M1054 374Q1054 259 998 170T833 31T569 -20Q432 -20 313 23T106 149L190 245Q260 178 353 138T576 97Q664 97 743 127T872 219T922 377Q922 449 895 499T799 589T605 665Q477 702 377 749T220 869T163 1053Q163 1149
215 1226T363 1348T586 1393Q723 1393 823 1354T1009 1242L923 1148Q848 1216 762 1246T586 1276Q507 1276 440 1252T332 1178T291 1053Q291 989 325 943T439 858T657 779Q757 751 848 708T996 586T1054 374Z" />
<glyph unicode="T" horiz-adv-x="1200" d="M660 1256V0H533V1256H90V1374H1105L1091 1256H660Z" />
<glyph unicode="U" horiz-adv-x="1200" d="M1037 1374V441Q1037 302 981 199T826 38T597 -20Q465 -20 368 38T217 201T163 441V1374H289V397Q289 249 374 176T597 102Q737 102 822 175T908 397V1374H1037Z" />
<glyph unicode="V" horiz-adv-x="1200" d="M603 180L1008 1374H1135L656 0H544L64 1374H203L603 180Z" />
<glyph unicode="W" horiz-adv-x="1200" d="M1186 1374L962 0H768L593 1053L420 0H220L14 1374H148L325 164L505 1214H697L869 164L1062 1374H1186Z" />
<glyph unicode="X" horiz-adv-x="1200" d="M117 1374H270L600 820L930 1374H1070L673 741L1121 0H968L596 650L217 0H78L522 733L117 1374Z" />
<glyph unicode="Y" horiz-adv-x="1200" d="M665 534V0H535V532L66 1374H208L603 657L1003 1374H1134L665 534Z" />
<glyph unicode="Z" horiz-adv-x="1200" d="M295 117H1034L1017 0H162V110L911 1257H234V1374H1041V1263L295 117Z" />
<glyph unicode="[" horiz-adv-x="1200" d="M385 -226V1626H852V1509H502V-111H852V-226H385Z" />
<glyph unicode="\" horiz-adv-x="1200" d="M119 1563L220 1614L1081 -156L978 -201L119 1563Z" />
<glyph unicode="]" horiz-adv-x="1200" d="M815 1626V-226H348V-112H698V1509H348V1626H815Z" />
<glyph unicode="^" horiz-adv-x="1200" d="M654 1676L1032 1054H887L598 1551L308 1054H168L546 1676H654Z" />
<glyph unicode="_" horiz-adv-x="1200" d="M100 -360V-243H1100V-360H100Z" />
<glyph unicode="`" horiz-adv-x="1200" d="M766 1244L382 1429L462 1545L811 1317L766 1244Z" />
<glyph unicode="a" horiz-adv-x="1200" d="M932 207Q932 143 954 114T1022 70L988 -21Q928 -12 881 23T815 130Q760 57 678 19T491 -20Q335 -20 246 68T157 303Q157 463 281 548T644 633H803V735Q803 858 733 907T540 957Q487 957 420 945T271 904L235 1006Q330
1041 407 1055T558 1069Q743 1069 837 979T932 739V207ZM515 79Q601 79 676 121T803 238V538H629Q442 538 368 473T294 299Q294 190 348 135T515 79Z" />
<glyph unicode="b" horiz-adv-x="1200" d="M343 905Q403 984 480 1026T652 1069Q794 1069 881 1001T1007 811T1047 525Q1047 367 1000 244T860 51T633 -20Q445 -20 339 113L327 0H219V1475L343 1492V905ZM606 88Q752 88 829 197T907 527Q907 667 877 764T786 912T634
963Q536 963 462 905T343 780V236Q388 169 457 129T606 88Z" />
<glyph unicode="c" horiz-adv-x="1200" d="M669 94Q753 94 824 120T954 187L1019 103Q950 45 854 13T674 -20Q521 -20 415 46T253 235T197 521Q197 677 252 801T414 997T675 1069Q770 1069 856 1039T1016 950L950 861Q879 910 810 934T669 959Q524 959 430 849T335
521Q335 374 378 280T496 140T669 94Z" />
<glyph unicode="d" horiz-adv-x="1200" d="M857 1492L981 1475V0H873L857 145Q794 55 717 18T557 -20Q418 -20 329 48T196 239T153 522Q153 679 201 802T341 997T563 1069Q659 1069 731 1036T857 937V1492ZM594 962Q448 962 371 852T293 523Q293 385 324 288T418
139T573 88Q673 88 742 144T857 267V813Q811 884 743 923T594 962Z" />
<glyph unicode="e" horiz-adv-x="1200" d="M309 475Q312 343 356 259T474 134T633 94Q716 94 780 118T916 191L981 98Q908 42 817 11T638 -20Q493 -20 390 48T231 238T176 524Q176 684 232 807T387 999T619 1069Q747 1069 838 1007T977 832T1026 561Q1026 534
1025 513T1023 475H309ZM622 953Q495 953 409 863T311 587H908Q904 772 825 862T622 953Z" />
<glyph unicode="f" horiz-adv-x="1200" d="M825 1492Q901 1492 964 1478T1087 1438L1042 1337Q993 1360 936 1371T817 1383Q702 1383 642 1337T582 1199V964H943L930 858H582V0H458V858H198V964H458V1191Q458 1286 508 1353T642 1456T825 1492Z" />
<glyph unicode="g" horiz-adv-x="1200" d="M1049 1145L1095 1009Q1024 989 948 985T786 981Q875 940 919 873T963 719Q963 615 918 534T789 406T583 360Q524 360 487 365T415 383Q390 364 373 333T355 268Q355 227 387 200T503 173H697Q798 173 880 136T1011 36T1060
-106Q1060 -259 932 -338T576 -418Q419 -418 326 -386T193 -285T152 -108H266Q266 -174 291 -217T383 -281T572 -303Q693 -303 772 -283T892 -220T932 -114Q932 -31 855 10T670 51H476Q350 51 290 110T230 245Q230 293 258 339T344 424Q257 470 214 540T171 711Q171
814 222 895T364 1023T575 1070Q712 1072 793 1080T931 1105T1049 1145ZM572 972Q430 972 365 897T299 709Q299 597 366 522T578 446Q699 446 763 516T827 710Q827 838 763 905T572 972Z" />
<glyph unicode="h" horiz-adv-x="1200" d="M343 1487V895Q404 981 498 1025T686 1069Q844 1069 914 987T984 760V0H860V782Q860 876 809 921T654 966Q586 966 525 936T417 863T343 777V0H219V1472L343 1487Z" />
<glyph unicode="i" horiz-adv-x="1200" d="M718 1050V108H1023V0H262V108H594V942H272V1050H718ZM601 1525Q649 1525 677 1496T705 1426Q705 1382 677 1353T601 1323Q556 1323 528 1352T500 1426Q500 1467 528 1496T601 1525Z" />
<glyph unicode="j" horiz-adv-x="1200" d="M874 1050V128Q874 -32 797 -142T575 -319T228 -418L207 -321Q361 -298 484 -248T678 -108T750 119V942H295V1050H874ZM731 1525Q779 1525 807 1496T836 1426Q836 1382 808 1353T731 1323Q686 1323 659 1352T631 1426Q631
1467 658 1496T731 1525Z" />
<glyph unicode="k" horiz-adv-x="1200" d="M1064 1050L553 575L1126 0H947L378 573L879 1050H1064ZM357 1492V0H233V1475L357 1492Z" />
<glyph unicode="l" horiz-adv-x="1200" d="M586 1475V238Q586 156 638 122T771 88Q821 88 865 98T956 126L992 30Q953 11 893 -4T759 -20Q635 -20 549 47T462 238V1367H136V1475H586Z" />
<glyph unicode="m" horiz-adv-x="1200" d="M886 1069Q929 1069 975 1050T1053 969T1085 783V0H963V759Q963 871 951 921T874 971Q820 971 768 938T668 828V0H530V759Q530 871 518 921T441 971Q385 971 334 938T235 828V0H115V1050H217L224 923Q265 982 319 1025T455
1069Q515 1069 571 1041T655 926Q696 990 749 1029T886 1069Z" />
<glyph unicode="n" horiz-adv-x="1200" d="M219 0V1050H323L333 897Q395 979 496 1024T686 1069Q847 1069 915 987T984 760V0H860V627Q860 747 847 822T791 931T656 966Q586 966 525 936T417 861T343 774V0H219Z" />
<glyph unicode="o" horiz-adv-x="1200" d="M603 1069Q747 1069 843 1002T986 813T1034 525Q1034 369 985 246T840 52T600 -20Q456 -20 360 48T215 239T166 523Q166 684 215 807T361 999T603 1069ZM603 960Q455 960 379 853T302 523Q302 305 377 198T600 90Q748
90 823 197T898 525Q898 746 824 853T603 960Z" />
<glyph unicode="p" horiz-adv-x="1200" d="M655 1069Q796 1069 879 1001T998 811T1034 525Q1034 367 991 244T858 51T629 -20Q450 -20 343 105V-401L219 -418V1050H321L335 895Q391 975 472 1022T655 1069ZM633 963Q536 963 462 905T343 780V236Q387 171 457 132T609
93Q755 93 826 200T898 527Q898 667 870 764T784 912T633 963Z" />
<glyph unicode="q" horiz-adv-x="1200" d="M560 1069Q660 1069 734 1033T863 926L877 1050H981V-418L857 -401V146Q796 58 717 19T554 -20Q411 -20 326 47T203 237T166 522Q166 679 210 802T343 997T560 1069ZM589 962Q445 962 374 852T302 523Q302 385 331 289T419
142T569 92Q667 92 739 146T857 267V813Q813 884 743 923T589 962Z" />
<glyph unicode="r" horiz-adv-x="1200" d="M229 0V104H400V945H229V1050H495L518 798Q580 926 666 998T900 1071Q941 1071 973 1065T1042 1050L1007 933Q972 943 946 947T885 952Q758 952 669 866T524 592V104H740V0H229ZM908 720V925L916 1050H1042L1028 720H908Z" />
<glyph unicode="s" horiz-adv-x="1200" d="M557 93Q691 93 767 144T844 280Q844 332 828 370T757 439T589 497Q476 525 394 559T266 648T221 794Q221 881 270 942T406 1036T602 1069Q725 1069 816 1036T970 956L912 864Q854 905 783 932T603 959Q464 959 408 915T352
804Q352 752 379 719T470 660T640 605Q743 578 820 540T940 441T983 283Q983 172 921 106T760 10T556 -20Q417 -20 322 21T163 117L240 208Q302 156 383 125T557 93Z" />
<glyph unicode="t" horiz-adv-x="1200" d="M1020 50Q968 16 894 -2T757 -20Q599 -20 510 64T420 275V946H172V1050H420V1292L544 1307V1050H914L897 946H544V278Q544 187 593 138T760 88Q820 88 871 102T966 139L1020 50Z" />
<glyph unicode="u" horiz-adv-x="1200" d="M343 1050V299Q343 187 390 136T541 84Q639 84 725 139T857 267V1050H981V0H877L863 147Q799 67 707 24T523 -20Q371 -20 295 59T219 284V1050H343Z" />
<glyph unicode="v" horiz-adv-x="1200" d="M1060 1050L669 0H526L140 1050H269L603 126L930 1050H1060Z" />
<glyph unicode="w" horiz-adv-x="1200" d="M963 0H758L608 790L445 0H246L43 1050H180L334 76L519 916H698L874 76L1027 1050H1157L963 0Z" />
<glyph unicode="x" horiz-adv-x="1200" d="M278 0H131L527 555L183 1050H336L602 643L874 1050H1023L674 561L1069 0H908L597 468L278 0Z" />
<glyph unicode="y" horiz-adv-x="1200" d="M1057 1050L682 -9Q648 -106 598 -193T465 -340T249 -417L227 -309Q337 -289 399 -249T497 -147T561 0H520L143 1050H277L608 106L928 1050H1057Z" />
<glyph unicode="z" horiz-adv-x="1200" d="M379 115H981L962 0H223V99L824 932H270V1050H977V948L379 115Z" />
<glyph unicode="{" horiz-adv-x="1200" d="M894 1668V1562Q817 1562 753 1547T653 1494T623 1393L668 948Q676 873 662 822T613 742T518 700Q577 689 613 662T662 584T668 452L623 7Q617 -58 652 -95T752 -147T894 -162V-268Q826 -268 755 -255T624 -210T532 -121T509
27L553 435Q560 501 544 549T459 624T242 651V749Q391 749 459 775T544 849T553 963L509 1374Q500 1463 532 1520T624 1610T754 1655T894 1668Z" />
<glyph unicode="|" horiz-adv-x="1200" d="M653 1611V-201H545V1611H653Z" />
<glyph unicode="}" horiz-adv-x="1200" d="M306 1668Q374 1668 445 1655T576 1610T668 1521T691 1373L647 963Q640 897 662 849T754 775T958 749V651Q824 651 755 625T663 550T647 435L691 26Q700 -63 668 -120T576 -210T446 -255T306 -268V-162Q383 -162 447
-147T547 -95T577 7L532 452Q524 534 538 584T593 660T711 697Q641 710 599 740T541 822T532 948L577 1393Q584 1457 548 1494T448 1546T306 1562V1668Z" />
<glyph unicode="~" horiz-adv-x="1200" d="M412 784Q488 784 540 754T632 684T709 614T793 584Q857 584 908 635T997 757L1100 701Q1075 655 1036 600T936 506T788 466Q718 466 668 496T576 566T495 636T407 666Q340 666 291 616T203 493L100 547Q127 598 165
653T264 746T412 784Z" />
<glyph unicode="&#xa0;" horiz-adv-x="1200" />
<glyph unicode="&#xa1;" horiz-adv-x="1200" d="M653 533L674 -390H522L541 533H653ZM597 989Q648 989 683 955T719 869Q719 820 684 785T597 749Q546 749 513 784T479 869Q479 920 512 954T597 989Z" />
<glyph unicode="&#xa2;" horiz-adv-x="1200" d="M734 1361V1060Q796 1055 855 1032T972 963L903 875Q834 925 779 942T664 959Q525 959 446 849T366 521Q366 301 446 198T665 94Q726 94 783 114T909 186L972 92Q916 43 856 21T734 -10V-302H608V-9Q418 11 323
151T228 521Q228 665 270 781T397 970T610 1059V1361H734Z" />
<glyph unicode="&#xa3;" horiz-adv-x="1200" d="M689 1393Q789 1393 878 1356T1032 1230L942 1160Q889 1222 828 1251T689 1280Q575 1280 516 1214T457 1022V767H885V664H457V387Q457 304 435 232T335 115H1020L1005 0H168V109Q249 135 283 175T324 266T332 374V664H163V767H332V1039Q332
1140 375 1220T499 1346T689 1393Z" />
<glyph unicode="&#xa4;" horiz-adv-x="1200" d="M169 1218L352 1033Q403 1065 466 1084T602 1103Q673 1103 736 1086T848 1033L1031 1216L1129 1117L950 936Q985 887 1005 823T1026 684Q1026 607 1005 543T948 427L1129 249L1031 149L845 331Q796 298 735 281T602
263Q529 263 466 280T352 331L169 148L71 247L254 429Q220 481 200 545T180 684Q180 758 200 821T252 934L71 1119L169 1218ZM602 990Q468 990 398 909T328 684Q328 540 398 459T602 378Q737 378 806 459T875 684Q875 827 806 908T602 990Z" />
<glyph unicode="&#xa5;" horiz-adv-x="1200" d="M1102 1374L705 687H955V583H667V401H955V299H667V0H531V299H247V401H531V583H247V687H491L98 1374H244L601 723H609L968 1374H1102Z" />
<glyph unicode="&#xa6;" horiz-adv-x="1200" d="M653 1611V906H545V1611H653ZM653 504V-201H545V504H653Z" />
<glyph unicode="&#xa7;" horiz-adv-x="1200" d="M632 1393Q742 1393 815 1364T952 1287L880 1193Q822 1234 763 1257T615 1281Q525 1281 467 1239T409 1125Q409 1076 430 1043T505 981T661 917Q830 860 899 793T968 613Q968 533 921 469T807 364Q861 324 894 272T928
150Q928 61 880 -2T749 -98T560 -131Q453 -131 373 -101T229 -21L303 68Q361 25 424 4T575 -18Q664 -18 726 23T789 137Q789 187 768 220T693 280T540 341Q371 400 300 466T229 649Q229 728 277 792T390 897Q335 938 303 990T271 1110Q271 1200 321 1263T454 1360T632
1393ZM475 847Q423 807 394 758T365 663Q365 600 394 565T502 498T726 412Q777 452 806 500T835 597Q835 657 806 691T698 759T475 847Z" />
<glyph unicode="&#xa8;" horiz-adv-x="1200" d="M400 1303Q359 1303 333 1328T306 1393Q306 1434 332 1460T400 1486Q438 1486 464 1460T491 1393Q491 1354 465 1329T400 1303ZM797 1303Q758 1303 732 1328T706 1393Q706 1434 732 1460T797 1486Q838 1486 864
1460T891 1393Q891 1354 865 1329T797 1303Z" />
<glyph unicode="&#xa9;" horiz-adv-x="1200" d="M602 1486Q770 1486 887 1404T1067 1184T1129 877Q1129 710 1067 572T888 351T602 268Q436 268 317 350T135 571T71 877Q71 1045 133 1183T314 1404T602 1486ZM606 1253Q683 1253 734 1235T840 1180L777 1092Q735
1127 692 1141T607 1156Q522 1156 463 1092T403 879Q403 743 460 676T607 609Q665 609 709 628T792 683L850 597Q810 563 752 535T608 506Q470 506 378 601T285 879Q285 1004 330 1087T449 1211T606 1253ZM602 1398Q457 1398 361 1328T216 1140T167 877Q167 734
215 616T360 429T602 359Q746 359 842 428T987 616T1035 877Q1035 1022 987 1140T842 1328T602 1398Z" />
<glyph unicode="&#xaa;" horiz-adv-x="1200" d="M579 1492Q736 1492 816 1419T897 1221V805Q897 759 914 737T965 704L935 615Q880 622 843 650T786 734Q737 678 665 648T518 617Q382 617 299 688T215 877Q215 1010 331 1077T649 1145H769V1216Q769 1304 713 1343T562
1383Q519 1383 455 1372T317 1335L277 1433Q364 1467 438 1479T579 1492ZM988 132V0H214V132H988ZM769 1049H638Q487 1049 419 1006T350 884Q350 800 401 758T543 715Q608 715 668 746T769 832V1049Z" />
<glyph unicode="&#xab;" horiz-adv-x="1200" d="M614 183L537 133L183 541V639L537 1051L614 1001L333 591L614 183ZM1014 183L937 133L581 541V639L937 1051L1014 1001L733 591L1014 183Z" />
<glyph unicode="&#xac;" horiz-adv-x="1200" d="M950 676V287H827V563H250V676H950Z" />
<glyph unicode="&#xad;" horiz-adv-x="1200" d="M293 568V684H907V568H293Z" />
<glyph unicode="&#xae;" horiz-adv-x="1200" d="M599 1486Q735 1486 847 1418T1025 1237T1092 988Q1092 852 1026 740T847 561T599 494Q464 494 352 561T173 740T106 988Q106 1124 173 1237T352 1418T599 1486ZM599 1404Q484 1404 393 1348T248 1197T195 988Q195
874 248 781T392 631T599 575Q715 575 806 631T950 780T1003 988Q1003 1102 950 1196T806 1347T599 1404ZM574 1273Q814 1273 814 1106Q814 1040 774 1001T675 947L852 711H729L570 931H510V711H406V1273H574ZM574 1191H510V1010H579Q639 1010 672 1031T706 1104Q706
1191 574 1191Z" />
<glyph unicode="&#xaf;" horiz-adv-x="1200" d="M857 1363H340V1464H857V1363Z" />
<glyph unicode="&#xb0;" horiz-adv-x="1200" d="M442 1492Q525 1492 596 1457T712 1353T757 1186Q757 1088 713 1020T597 916T442 881Q362 881 290 916T173 1020T128 1189Q128 1286 173 1353T290 1456T442 1492ZM442 1392Q373 1392 313 1344T252 1189Q252 1080
312 1031T442 981Q514 981 573 1030T632 1186Q632 1293 573 1342T442 1392Z" />
<glyph unicode="&#xb1;" horiz-adv-x="1200" d="M665 1063V769H950V657H665V318H535V657H250V769H535V1063H665ZM950 118V0H250V118H950Z" />
<glyph unicode="&#xb2;" horiz-adv-x="1200" d="M866 1070Q866 1005 832 955T721 855T513 738H884L870 630H320V723Q484 825 574 883T701 983T738 1071Q738 1121 705 1148T609 1176Q557 1176 504 1153T403 1071L313 1140Q436 1284 605 1284Q730 1284 798 1226T866 1070Z" />
<glyph unicode="&#xb3;" horiz-adv-x="1200" d="M618 1284Q736 1284 804 1237T872 1106Q872 1054 841 1021T728 975Q814 962 856 929T899 822Q899 733 821 676T598 618Q521 618 443 645T302 737L383 803Q430 760 489 739T607 717Q693 717 733 746T773 820Q773
878 733 901T618 925H529L541 997H606Q673 997 711 1017T749 1089Q749 1187 613 1187Q557 1187 502 1168T394 1105L327 1179Q397 1238 470 1261T618 1284Z" />
<glyph unicode="&#xb4;" horiz-adv-x="1200" d="M772 1571L836 1455L434 1290L392 1360L772 1571Z" />
<glyph unicode="&#xb5;" horiz-adv-x="1200" d="M943 1050V323Q943 219 964 136T1008 0L887 -22Q868 4 853 60T832 152Q784 73 700 26T535 -21Q447 -21 401 2T317 80Q316 32 317 -6T319 -58V-401L190 -419V1050H315V464Q315 353 327 272T382 146T512 102Q619 102
695 155T819 275V1050H943Z" />
<glyph unicode="&#xb6;" horiz-adv-x="1200" d="M1098 1374V-397L977 -419V1256H735V-397L614 -419V591Q443 589 329 642T157 784T99 979Q99 1088 157 1177T328 1320T609 1374H1098Z" />
<glyph unicode="&#xb7;" horiz-adv-x="1200" d="M437 684Q437 729 458 765T515 823T597 844Q645 844 682 823T740 766T761 684Q761 638 740 601T682 542T597 520Q551 520 515 541T458 600T437 684Z" />
<glyph unicode="&#xb8;" horiz-adv-x="1200" d="M693 -278Q693 -220 647 -204T523 -187L537 32H634V-119Q731 -126 772 -175T813 -277Q813 -342 780 -383T694 -443T585 -463Q528 -463 475 -452T384 -418L432 -335Q460 -350 498 -358T569 -366Q623 -366 658 -346T693
-278Z" />
<glyph unicode="&#xb9;" horiz-adv-x="1200" d="M674 630V1125L472 1013L412 1100L699 1272H789V630H674Z" />
<glyph unicode="&#xba;" horiz-adv-x="1200" d="M600 1492Q721 1492 809 1440T946 1289T995 1055Q995 926 946 827T809 673T600 617Q479 617 390 671T252 823T202 1055Q202 1186 251 1284T391 1437T600 1492ZM988 132V0H215V132H988ZM600 1383Q480 1383 409 1303T338
1055Q338 888 409 806T600 724Q720 724 789 806T859 1055Q859 1222 790 1302T600 1383Z" />
<glyph unicode="&#xbb;" horiz-adv-x="1200" d="M863 591L581 1001L658 1051L1014 639V541L658 133L581 183L863 591ZM465 591L183 1001L260 1051L614 639V541L260 133L183 183L465 591Z" />
<glyph unicode="&#xbc;" horiz-adv-x="1200" d="M270 734V1229L68 1117L8 1204L295 1376H385V734H270ZM84 373L28 467L1098 979L1152 885L84 373ZM1075 112V0H949V112H593V198L873 663L976 616L737 222H947L954 397H1075V222H1193V112H1075Z" />
<glyph unicode="&#xbd;" horiz-adv-x="1200" d="M264 734V1229L62 1117L2 1204L289 1376H379V734H264ZM76 373L20 467L1090 979L1144 885L76 373ZM1182 440Q1182 375 1148 325T1037 225T829 108H1200L1186 0H636V93Q800 195 890 253T1017 353T1054 441Q1054 491
1021 518T925 546Q873 546 820 523T719 441L629 510Q752 654 921 654Q1046 654 1114 596T1182 440Z" />
<glyph unicode="&#xbe;" horiz-adv-x="1200" d="M317 1388Q435 1388 503 1341T571 1210Q571 1158 540 1125T427 1079Q513 1066 555 1033T598 926Q598 837 520 780T297 722Q220 722 142 749T1 841L82 907Q129 864 188 843T306 821Q392 821 432 850T472 924Q472
982 432 1005T317 1029H228L240 1101H305Q372 1101 410 1121T448 1193Q448 1291 312 1291Q256 1291 201 1272T93 1209L26 1283Q96 1342 169 1365T317 1388ZM105 373L49 467L1119 979L1173 885L105 373ZM1080 112V0H954V112H598V198L878 663L981 616L742 222H952L959
397H1080V222H1198V112H1080Z" />
<glyph unicode="&#xbf;" horiz-adv-x="1200" d="M651 989Q703 989 738 955T773 869Q773 820 738 785T651 749Q601 749 567 784T533 869Q533 920 567 954T651 989ZM727 533V445Q727 350 691 287T600 177T492 91T402 2T365 -117Q365 -212 439 -263T624 -315Q696
-315 774 -279T917 -162L1013 -230Q925 -333 823 -378T611 -423Q497 -423 413 -380T283 -267T236 -122Q236 -27 272 33T361 135T468 217T557 313T593 455V533H727Z" />
<glyph unicode="&#xc0;" horiz-adv-x="1200" d="M887 367H301L180 0H60L515 1374H684L1140 0H1008L887 367ZM344 483H845L596 1255L344 483ZM467 1793L818 1583L774 1514L381 1676L467 1793Z" />
<glyph unicode="&#xc1;" horiz-adv-x="1200" d="M887 367H301L180 0H60L515 1374H684L1140 0H1008L887 367ZM344 483H845L596 1255L344 483ZM767 1784L830 1667L417 1514L381 1583L767 1784Z" />
<glyph unicode="&#xc2;" horiz-adv-x="1200" d="M887 367H301L180 0H60L515 1374H684L1140 0H1008L887 367ZM344 483H845L596 1255L344 483ZM646 1802L911 1600L849 1528L600 1686L354 1528L290 1600L557 1802H646Z" />
<glyph unicode="&#xc3;" horiz-adv-x="1200" d="M887 367H301L180 0H60L515 1374H684L1140 0H1008L887 367ZM344 483H845L596 1255L344 483ZM718 1567Q667 1567 629 1591T556 1641T484 1666Q451 1666 427 1642T378 1572L287 1619Q320 1682 369 1724T487 1767Q541
1767 578 1743T648 1694T719 1669Q748 1669 773 1690T826 1757L916 1711Q877 1632 827 1600T718 1567Z" />
<glyph unicode="&#xc4;" horiz-adv-x="1200" d="M887 367H301L180 0H60L515 1374H684L1140 0H1008L887 367ZM344 483H845L596 1255L344 483ZM400 1539Q359 1539 333 1564T306 1629Q306 1670 332 1696T400 1722Q438 1722 464 1696T491 1629Q491 1590 465 1565T400
1539ZM797 1539Q758 1539 732 1564T706 1629Q706 1670 732 1696T797 1722Q838 1722 864 1696T891 1629Q891 1590 865 1565T797 1539Z" />
<glyph unicode="&#xc5;" horiz-adv-x="1200" d="M887 367H301L180 0H60L515 1374H684L1140 0H1008L887 367ZM344 483H845L596 1255L344 483ZM601 1858Q688 1858 747 1804T806 1669Q806 1617 779 1575T706 1509T601 1484Q543 1484 496 1508T422 1575T395 1669Q395
1750 454 1804T601 1858ZM601 1788Q549 1788 518 1756T487 1669Q487 1617 518 1585T601 1552Q654 1552 684 1584T714 1669Q714 1723 684 1755T601 1788Z" />
<glyph unicode="&#xc6;" horiz-adv-x="1200" d="M669 365H224L112 0H-24L396 1374H1133L1116 1257H613L725 756H1115V639H748L861 117H1218V0H749L669 365ZM272 487H638L478 1262L272 487Z" />
<glyph unicode="&#xc7;" horiz-adv-x="1200" d="M716 1393Q847 1393 934 1361T1101 1264L1023 1175Q956 1232 883 1254T730 1277Q610 1277 507 1222T340 1039T277 687Q277 470 337 341T498 155T724 98Q843 98 919 132T1050 211L1122 119Q1064 63 967 22T726 -20Q565
-20 433 61T222 300T144 687Q144 919 223 1076T433 1313T716 1393ZM791 -278Q791 -220 745 -204T621 -187L635 32H732V-119Q829 -126 870 -175T911 -277Q911 -342 878 -383T792 -443T683 -463Q626 -463 573 -452T482 -418L530 -335Q558 -350 596 -358T667 -366Q721
-366 756 -346T791 -278Z" />
<glyph unicode="&#xc8;" horiz-adv-x="1200" d="M398 1260V757H918V640H398V111H1039V0H270V1374H1016L999 1260H398ZM510 1793L861 1583L817 1514L424 1676L510 1793Z" />
<glyph unicode="&#xc9;" horiz-adv-x="1200" d="M398 1260V757H918V640H398V111H1039V0H270V1374H1016L999 1260H398ZM810 1784L873 1667L460 1514L424 1583L810 1784Z" />
<glyph unicode="&#xca;" horiz-adv-x="1200" d="M398 1260V757H918V640H398V111H1039V0H270V1374H1016L999 1260H398ZM689 1802L954 1600L892 1528L643 1686L397 1528L333 1600L600 1802H689Z" />
<glyph unicode="&#xcb;" horiz-adv-x="1200" d="M398 1260V757H918V640H398V111H1039V0H270V1374H1016L999 1260H398ZM443 1539Q402 1539 376 1564T349 1629Q349 1670 375 1696T443 1722Q481 1722 507 1696T534 1629Q534 1590 508 1565T443 1539ZM840 1539Q801
1539 775 1564T749 1629Q749 1670 775 1696T840 1722Q881 1722 907 1696T934 1629Q934 1590 908 1565T840 1539Z" />
<glyph unicode="&#xcc;" horiz-adv-x="1200" d="M977 1374V1265H665V109H977V0H223V109H535V1265H223V1374H977ZM467 1793L818 1583L774 1514L381 1676L467 1793Z" />
<glyph unicode="&#xcd;" horiz-adv-x="1200" d="M977 1374V1265H665V109H977V0H223V109H535V1265H223V1374H977ZM767 1784L830 1667L417 1514L381 1583L767 1784Z" />
<glyph unicode="&#xce;" horiz-adv-x="1200" d="M977 1374V1265H665V109H977V0H223V109H535V1265H223V1374H977ZM646 1802L911 1600L849 1528L600 1686L354 1528L290 1600L557 1802H646Z" />
<glyph unicode="&#xcf;" horiz-adv-x="1200" d="M977 1374V1265H665V109H977V0H223V109H535V1265H223V1374H977ZM400 1539Q359 1539 333 1564T306 1629Q306 1670 332 1696T400 1722Q438 1722 464 1696T491 1629Q491 1590 465 1565T400 1539ZM797 1539Q758 1539
732 1564T706 1629Q706 1670 732 1696T797 1722Q838 1722 864 1696T891 1629Q891 1590 865 1565T797 1539Z" />
<glyph unicode="&#xd0;" horiz-adv-x="1200" d="M669 763V649H47V763H669ZM970 694Q970 886 928 999T817 1169T671 1243T519 1261H330V110H522Q598 110 676 134T821 221T929 398T970 694ZM1109 694Q1109 476 1053 340T906 129T708 28T501 0H203V1374H480Q597 1374
709 1348T911 1249T1055 1043T1109 694Z" />
<glyph unicode="&#xd1;" horiz-adv-x="1200" d="M817 0L297 1239Q296 1223 298 1173T303 1050T309 898T312 740V0H186V1374H369L903 127Q905 145 901 220T893 405T888 638V1374H1014V0H817ZM965 1567Q914 1567 876 1591T803 1641T731 1666Q698 1666 674 1642T625
1572L534 1619Q567 1682 616 1724T734 1767Q788 1767 825 1743T895 1694T966 1669Q995 1669 1020 1690T1073 1757L1163 1711Q1124 1632 1074 1600T965 1567Z" />
<glyph unicode="&#xd2;" horiz-adv-x="1200" d="M1093 685Q1093 480 1038 321T874 71T600 -20Q437 -20 327 68T162 315T107 682Q107 888 162 1048T327 1301T600 1393Q764 1393 873 1304T1038 1055T1093 685ZM957 685Q957 966 874 1120T600 1275Q409 1275 326 1119T243
682Q243 402 329 250T600 98Q790 98 873 250T957 685ZM467 1793L818 1583L774 1514L381 1676L467 1793Z" />
<glyph unicode="&#xd3;" horiz-adv-x="1200" d="M1093 685Q1093 480 1038 321T874 71T600 -20Q437 -20 327 68T162 315T107 682Q107 888 162 1048T327 1301T600 1393Q764 1393 873 1304T1038 1055T1093 685ZM957 685Q957 966 874 1120T600 1275Q409 1275 326 1119T243
682Q243 402 329 250T600 98Q790 98 873 250T957 685ZM767 1784L830 1667L417 1514L381 1583L767 1784Z" />
<glyph unicode="&#xd4;" horiz-adv-x="1200" d="M1093 685Q1093 480 1038 321T874 71T600 -20Q437 -20 327 68T162 315T107 682Q107 888 162 1048T327 1301T600 1393Q764 1393 873 1304T1038 1055T1093 685ZM957 685Q957 966 874 1120T600 1275Q409 1275 326 1119T243
682Q243 402 329 250T600 98Q790 98 873 250T957 685ZM646 1802L911 1600L849 1528L600 1686L354 1528L290 1600L557 1802H646Z" />
<glyph unicode="&#xd5;" horiz-adv-x="1200" d="M1093 685Q1093 480 1038 321T874 71T600 -20Q437 -20 327 68T162 315T107 682Q107 888 162 1048T327 1301T600 1393Q764 1393 873 1304T1038 1055T1093 685ZM957 685Q957 966 874 1120T600 1275Q409 1275 326 1119T243
682Q243 402 329 250T600 98Q790 98 873 250T957 685ZM718 1567Q667 1567 629 1591T556 1641T484 1666Q451 1666 427 1642T378 1572L287 1619Q320 1682 369 1724T487 1767Q541 1767 578 1743T648 1694T719 1669Q748 1669 773 1690T826 1757L916 1711Q877 1632 827
1600T718 1567Z" />
<glyph unicode="&#xd6;" horiz-adv-x="1200" d="M1093 685Q1093 480 1038 321T874 71T600 -20Q437 -20 327 68T162 315T107 682Q107 888 162 1048T327 1301T600 1393Q764 1393 873 1304T1038 1055T1093 685ZM957 685Q957 966 874 1120T600 1275Q409 1275 326 1119T243
682Q243 402 329 250T600 98Q790 98 873 250T957 685ZM400 1539Q359 1539 333 1564T306 1629Q306 1670 332 1696T400 1722Q438 1722 464 1696T491 1629Q491 1590 465 1565T400 1539ZM797 1539Q758 1539 732 1564T706 1629Q706 1670 732 1696T797 1722Q838 1722
864 1696T891 1629Q891 1590 865 1565T797 1539Z" />
<glyph unicode="&#xd7;" horiz-adv-x="1200" d="M850 951L934 864L686 614L934 364L850 280L600 528L350 280L266 364L514 614L266 864L350 951L600 700L850 951Z" />
<glyph unicode="&#xd8;" horiz-adv-x="1200" d="M600 1393Q765 1393 874 1304T1038 1055T1093 685Q1093 480 1038 321T874 71T600 -20Q435 -20 326 68T162 315T107 682Q107 888 162 1048T327 1301T600 1393ZM803 1606L932 1575L853 1317L822 1263L479 73L471 11L400
-221L271 -189L348 54L379 120L712 1277L737 1374L803 1606ZM600 1272Q412 1272 330 1117T248 682Q248 468 285 341T401 157T600 101Q788 101 870 253T952 685Q952 900 916 1029T803 1215T600 1272Z" />
<glyph unicode="&#xd9;" horiz-adv-x="1200" d="M1037 1374V441Q1037 302 981 199T826 38T597 -20Q465 -20 368 38T217 201T163 441V1374H289V397Q289 249 374 176T597 102Q737 102 822 175T908 397V1374H1037ZM467 1793L818 1583L774 1514L381 1676L467 1793Z" />
<glyph unicode="&#xda;" horiz-adv-x="1200" d="M1037 1374V441Q1037 302 981 199T826 38T597 -20Q465 -20 368 38T217 201T163 441V1374H289V397Q289 249 374 176T597 102Q737 102 822 175T908 397V1374H1037ZM767 1784L830 1667L417 1514L381 1583L767 1784Z" />
<glyph unicode="&#xdb;" horiz-adv-x="1200" d="M1037 1374V441Q1037 302 981 199T826 38T597 -20Q465 -20 368 38T217 201T163 441V1374H289V397Q289 249 374 176T597 102Q737 102 822 175T908 397V1374H1037ZM646 1802L911 1600L849 1528L600 1686L354 1528L290
1600L557 1802H646Z" />
<glyph unicode="&#xdc;" horiz-adv-x="1200" d="M1037 1374V441Q1037 302 981 199T826 38T597 -20Q465 -20 368 38T217 201T163 441V1374H289V397Q289 249 374 176T597 102Q737 102 822 175T908 397V1374H1037ZM400 1539Q359 1539 333 1564T306 1629Q306 1670
332 1696T400 1722Q438 1722 464 1696T491 1629Q491 1590 465 1565T400 1539ZM797 1539Q758 1539 732 1564T706 1629Q706 1670 732 1696T797 1722Q838 1722 864 1696T891 1629Q891 1590 865 1565T797 1539Z" />
<glyph unicode="&#xdd;" horiz-adv-x="1200" d="M665 534V0H535V532L66 1374H208L603 657L1003 1374H1134L665 534ZM776 1784L839 1667L426 1514L390 1583L776 1784Z" />
<glyph unicode="&#xde;" horiz-adv-x="1200" d="M369 1374V1139H593Q832 1139 965 1036T1099 711Q1099 551 1031 453T846 309T579 264H369V0H243V1374H369ZM618 1030H369V374H615Q716 374 795 402T919 503T964 706Q964 880 867 955T618 1030Z" />
<glyph unicode="&#xdf;" horiz-adv-x="1200" d="M596 1492Q739 1492 833 1415T927 1212Q927 1152 903 1110T843 1036T771 977T711 922T687 855Q687 801 729 763T833 690T957 610T1062 499T1104 333Q1104 218 1053 140T919 21T740 -20Q660 -20 597 -2T481 51L539
138Q578 115 630 100T732 85Q845 85 912 143T979 322Q979 389 948 436T869 518T766 585T664 652T584 733T553 845Q553 904 579 942T643 1009T720 1063T785 1119T811 1195Q811 1233 793 1276T728 1351T597 1383Q474 1383 406 1315T337 1079V0H213V1068Q213 1280
317 1386T596 1492Z" />
<glyph unicode="&#xe0;" horiz-adv-x="1200" d="M932 207Q932 143 954 114T1022 70L988 -21Q928 -12 881 23T815 130Q760 57 678 19T491 -20Q335 -20 246 68T157 303Q157 463 281 548T644 633H803V735Q803 858 733 907T540 957Q487 957 420 945T271 904L235 1006Q330
1041 407 1055T558 1069Q743 1069 837 979T932 739V207ZM515 79Q601 79 676 121T803 238V538H629Q442 538 368 473T294 299Q294 190 348 135T515 79ZM1005 1244L621 1429L701 1545L1050 1317L1005 1244Z" />
<glyph unicode="&#xe1;" horiz-adv-x="1200" d="M932 207Q932 143 954 114T1022 70L988 -21Q928 -12 881 23T815 130Q760 57 678 19T491 -20Q335 -20 246 68T157 303Q157 463 281 548T644 633H803V735Q803 858 733 907T540 957Q487 957 420 945T271 904L235 1006Q330
1041 407 1055T558 1069Q743 1069 837 979T932 739V207ZM515 79Q601 79 676 121T803 238V538H629Q442 538 368 473T294 299Q294 190 348 135T515 79ZM1011 1571L1075 1455L673 1290L631 1360L1011 1571Z" />
<glyph unicode="&#xe2;" horiz-adv-x="1200" d="M932 207Q932 143 954 114T1022 70L988 -21Q928 -12 881 23T815 130Q760 57 678 19T491 -20Q335 -20 246 68T157 303Q157 463 281 548T644 633H803V735Q803 858 733 907T540 957Q487 957 420 945T271 904L235 1006Q330
1041 407 1055T558 1069Q743 1069 837 979T932 739V207ZM515 79Q601 79 676 121T803 238V538H629Q442 538 368 473T294 299Q294 190 348 135T515 79ZM599 1268L529 1338L796 1563H885L1150 1338L1085 1268L842 1447L599 1268Z" />
<glyph unicode="&#xe3;" horiz-adv-x="1200" d="M932 207Q932 143 954 114T1022 70L988 -21Q928 -12 881 23T815 130Q760 57 678 19T491 -20Q335 -20 246 68T157 303Q157 463 281 548T644 633H803V735Q803 858 733 907T540 957Q487 957 420 945T271 904L235 1006Q330
1041 407 1055T558 1069Q743 1069 837 979T932 739V207ZM515 79Q601 79 676 121T803 238V538H629Q442 538 368 473T294 299Q294 190 348 135T515 79ZM957 1331Q906 1331 868 1355T795 1405T723 1430Q690 1430 666 1406T617 1336L526 1383Q559 1446 608 1488T726
1531Q780 1531 817 1507T887 1458T958 1433Q987 1433 1012 1454T1065 1521L1155 1475Q1116 1396 1066 1364T957 1331Z" />
<glyph unicode="&#xe4;" horiz-adv-x="1200" d="M932 207Q932 143 954 114T1022 70L988 -21Q928 -12 881 23T815 130Q760 57 678 19T491 -20Q335 -20 246 68T157 303Q157 463 281 548T644 633H803V735Q803 858 733 907T540 957Q487 957 420 945T271 904L235 1006Q330
1041 407 1055T558 1069Q743 1069 837 979T932 739V207ZM515 79Q601 79 676 121T803 238V538H629Q442 538 368 473T294 299Q294 190 348 135T515 79ZM639 1303Q598 1303 572 1328T545 1393Q545 1434 571 1460T639 1486Q677 1486 703 1460T730 1393Q730 1354 704
1329T639 1303ZM1036 1303Q997 1303 971 1328T945 1393Q945 1434 971 1460T1036 1486Q1077 1486 1103 1460T1130 1393Q1130 1354 1104 1329T1036 1303Z" />
<glyph unicode="&#xe5;" horiz-adv-x="1200" d="M932 207Q932 143 954 114T1022 70L988 -21Q928 -12 881 23T815 130Q760 57 678 19T491 -20Q335 -20 246 68T157 303Q157 463 281 548T644 633H803V735Q803 858 733 907T540 957Q487 957 420 945T271 904L235 1006Q330
1041 407 1055T558 1069Q743 1069 837 979T932 739V207ZM515 79Q601 79 676 121T803 238V538H629Q442 538 368 473T294 299Q294 190 348 135T515 79ZM840 1622Q927 1622 986 1568T1045 1433Q1045 1381 1018 1339T945 1273T840 1248Q782 1248 735 1272T661 1339T634
1433Q634 1514 693 1568T840 1622ZM840 1552Q788 1552 757 1520T726 1433Q726 1381 757 1349T840 1316Q893 1316 923 1348T953 1433Q953 1487 923 1519T840 1552Z" />
<glyph unicode="&#xe6;" horiz-adv-x="1200" d="M873 1069Q1050 1069 1133 932T1217 561Q1217 505 1214 469H659Q673 279 727 190T894 101Q956 101 1002 123T1100 185L1165 83Q1105 36 1042 8T897 -20Q792 -20 721 28T592 179Q528 69 462 25T295 -20Q156 -20 72
67T-12 301Q-12 464 100 550T424 637H517V735Q517 848 469 896T333 945Q279 945 232 932T119 889L81 1003Q144 1033 214 1051T345 1069Q462 1069 521 1019T608 883Q637 970 704 1019T873 1069ZM517 537H420Q263 537 204 474T144 309Q144 199 190 144T309 88Q384
88 438 140T546 293Q533 349 525 409T517 537ZM870 947Q772 947 723 867T659 589H1075Q1071 763 1027 855T870 947Z" />
<glyph unicode="&#xe7;" horiz-adv-x="1200" d="M669 94Q753 94 824 120T954 187L1019 103Q950 45 854 13T674 -20Q521 -20 415 46T253 235T197 521Q197 677 252 801T414 997T675 1069Q770 1069 856 1039T1016 950L950 861Q879 910 810 934T669 959Q524 959 430
849T335 521Q335 374 378 280T496 140T669 94ZM771 -278Q771 -220 725 -204T601 -187L615 32H712V-119Q809 -126 850 -175T891 -277Q891 -342 858 -383T772 -443T663 -463Q606 -463 553 -452T462 -418L510 -335Q538 -350 576 -358T647 -366Q701 -366 736 -346T771
-278Z" />
<glyph unicode="&#xe8;" horiz-adv-x="1200" d="M309 475Q312 343 356 259T474 134T633 94Q716 94 780 118T916 191L981 98Q908 42 817 11T638 -20Q493 -20 390 48T231 238T176 524Q176 684 232 807T387 999T619 1069Q747 1069 838 1007T977 832T1026 561Q1026
534 1025 513T1023 475H309ZM622 953Q495 953 409 863T311 587H908Q904 772 825 862T622 953ZM789 1244L405 1429L485 1545L834 1317L789 1244Z" />
<glyph unicode="&#xe9;" horiz-adv-x="1200" d="M309 475Q312 343 356 259T474 134T633 94Q716 94 780 118T916 191L981 98Q908 42 817 11T638 -20Q493 -20 390 48T231 238T176 524Q176 684 232 807T387 999T619 1069Q747 1069 838 1007T977 832T1026 561Q1026
534 1025 513T1023 475H309ZM622 953Q495 953 409 863T311 587H908Q904 772 825 862T622 953ZM795 1571L859 1455L457 1290L415 1360L795 1571Z" />
<glyph unicode="&#xea;" horiz-adv-x="1200" d="M309 475Q312 343 356 259T474 134T633 94Q716 94 780 118T916 191L981 98Q908 42 817 11T638 -20Q493 -20 390 48T231 238T176 524Q176 684 232 807T387 999T619 1069Q747 1069 838 1007T977 832T1026 561Q1026
534 1025 513T1023 475H309ZM622 953Q495 953 409 863T311 587H908Q904 772 825 862T622 953ZM383 1268L313 1338L580 1563H669L934 1338L869 1268L626 1447L383 1268Z" />
<glyph unicode="&#xeb;" horiz-adv-x="1200" d="M309 475Q312 343 356 259T474 134T633 94Q716 94 780 118T916 191L981 98Q908 42 817 11T638 -20Q493 -20 390 48T231 238T176 524Q176 684 232 807T387 999T619 1069Q747 1069 838 1007T977 832T1026 561Q1026
534 1025 513T1023 475H309ZM622 953Q495 953 409 863T311 587H908Q904 772 825 862T622 953ZM423 1303Q382 1303 356 1328T329 1393Q329 1434 355 1460T423 1486Q461 1486 487 1460T514 1393Q514 1354 488 1329T423 1303ZM820 1303Q781 1303 755 1328T729 1393Q729
1434 755 1460T820 1486Q861 1486 887 1460T914 1393Q914 1354 888 1329T820 1303Z" />
<glyph unicode="&#xec;" horiz-adv-x="1200" d="M718 1050V108H1023V0H262V108H594V942H272V1050H718ZM770 1244L386 1429L466 1545L815 1317L770 1244Z" />
<glyph unicode="&#xed;" horiz-adv-x="1200" d="M718 1050V108H1023V0H262V108H594V942H272V1050H718ZM776 1571L840 1455L438 1290L396 1360L776 1571Z" />
<glyph unicode="&#xee;" horiz-adv-x="1200" d="M718 1050V108H1023V0H262V108H594V942H272V1050H718ZM364 1268L294 1338L561 1563H650L915 1338L850 1268L607 1447L364 1268Z" />
<glyph unicode="&#xef;" horiz-adv-x="1200" d="M718 1050V108H1023V0H262V108H594V942H272V1050H718ZM404 1303Q363 1303 337 1328T310 1393Q310 1434 336 1460T404 1486Q442 1486 468 1460T495 1393Q495 1354 469 1329T404 1303ZM801 1303Q762 1303 736 1328T710
1393Q710 1434 736 1460T801 1486Q842 1486 868 1460T895 1393Q895 1354 869 1329T801 1303Z" />
<glyph unicode="&#xf0;" horiz-adv-x="1200" d="M365 1119L540 1302Q488 1329 427 1348T291 1383L321 1493Q410 1472 485 1447T622 1386L759 1533L842 1460L713 1326Q886 1204 968 1008T1051 519Q1051 350 993 229T831 44T591 -20Q470 -20 370 37T210 204T150
471Q150 619 208 729T364 900T574 961Q680 961 763 922T904 812Q878 946 806 1057T631 1243L461 1067L365 1119ZM925 541Q925 576 924 606T918 668Q863 758 775 805T578 852Q501 852 432 813T320 693T277 481Q277 292 364 190T585 88Q737 88 831 203T925 541Z"
/>
<glyph unicode="&#xf1;" horiz-adv-x="1200" d="M219 0V1050H323L333 897Q395 979 496 1024T686 1069Q847 1069 915 987T984 760V0H860V627Q860 747 847 822T791 931T656 966Q586 966 525 936T417 861T343 774V0H219ZM973 1331Q922 1331 884 1355T811 1405T739
1430Q706 1430 682 1406T633 1336L542 1383Q575 1446 624 1488T742 1531Q796 1531 833 1507T903 1458T974 1433Q1003 1433 1028 1454T1081 1521L1171 1475Q1132 1396 1082 1364T973 1331Z" />
<glyph unicode="&#xf2;" horiz-adv-x="1200" d="M603 1069Q747 1069 843 1002T986 813T1034 525Q1034 369 985 246T840 52T600 -20Q456 -20 360 48T215 239T166 523Q166 684 215 807T361 999T603 1069ZM603 960Q455 960 379 853T302 523Q302 305 377 198T600 90Q748
90 823 197T898 525Q898 746 824 853T603 960ZM766 1244L382 1429L462 1545L811 1317L766 1244Z" />
<glyph unicode="&#xf3;" horiz-adv-x="1200" d="M603 1069Q747 1069 843 1002T986 813T1034 525Q1034 369 985 246T840 52T600 -20Q456 -20 360 48T215 239T166 523Q166 684 215 807T361 999T603 1069ZM603 960Q455 960 379 853T302 523Q302 305 377 198T600 90Q748
90 823 197T898 525Q898 746 824 853T603 960ZM772 1571L836 1455L434 1290L392 1360L772 1571Z" />
<glyph unicode="&#xf4;" horiz-adv-x="1200" d="M603 1069Q747 1069 843 1002T986 813T1034 525Q1034 369 985 246T840 52T600 -20Q456 -20 360 48T215 239T166 523Q166 684 215 807T361 999T603 1069ZM603 960Q455 960 379 853T302 523Q302 305 377 198T600 90Q748
90 823 197T898 525Q898 746 824 853T603 960ZM360 1268L290 1338L557 1563H646L911 1338L846 1268L603 1447L360 1268Z" />
<glyph unicode="&#xf5;" horiz-adv-x="1200" d="M603 1069Q747 1069 843 1002T986 813T1034 525Q1034 369 985 246T840 52T600 -20Q456 -20 360 48T215 239T166 523Q166 684 215 807T361 999T603 1069ZM603 960Q455 960 379 853T302 523Q302 305 377 198T600 90Q748
90 823 197T898 525Q898 746 824 853T603 960ZM718 1331Q667 1331 629 1355T556 1405T484 1430Q451 1430 427 1406T378 1336L287 1383Q320 1446 369 1488T487 1531Q541 1531 578 1507T648 1458T719 1433Q748 1433 773 1454T826 1521L916 1475Q877 1396 827 1364T718
1331Z" />
<glyph unicode="&#xf6;" horiz-adv-x="1200" d="M603 1069Q747 1069 843 1002T986 813T1034 525Q1034 369 985 246T840 52T600 -20Q456 -20 360 48T215 239T166 523Q166 684 215 807T361 999T603 1069ZM603 960Q455 960 379 853T302 523Q302 305 377 198T600 90Q748
90 823 197T898 525Q898 746 824 853T603 960ZM400 1303Q359 1303 333 1328T306 1393Q306 1434 332 1460T400 1486Q438 1486 464 1460T491 1393Q491 1354 465 1329T400 1303ZM797 1303Q758 1303 732 1328T706 1393Q706 1434 732 1460T797 1486Q838 1486 864 1460T891
1393Q891 1354 865 1329T797 1303Z" />
<glyph unicode="&#xf7;" horiz-adv-x="1200" d="M950 676V563H250V676H950ZM600 358Q650 358 685 324T721 240Q721 188 686 153T600 118Q550 118 515 153T479 240Q479 289 514 323T600 358ZM600 1121Q650 1121 685 1087T721 1003Q721 951 686 917T600 883Q550
883 515 917T479 1003Q479 1052 514 1086T600 1121Z" />
<glyph unicode="&#xf8;" horiz-adv-x="1200" d="M603 1069Q740 1069 836 1002T983 813T1034 525Q1034 369 985 246T840 52T600 -20Q463 -20 366 48T218 239T166 523Q166 684 215 807T361 999T603 1069ZM787 1303L901 1270L812 1001L788 963L522 97L492 6L415 -257L302
-223L395 60L426 128L691 991L708 1049L787 1303ZM603 957Q457 957 381 851T305 523Q305 369 340 274T441 136T600 93Q746 93 820 200T895 525Q895 681 860 776T760 914T603 957Z" />
<glyph unicode="&#xf9;" horiz-adv-x="1200" d="M343 1050V299Q343 187 390 136T541 84Q639 84 725 139T857 267V1050H981V0H877L863 147Q799 67 707 24T523 -20Q371 -20 295 59T219 284V1050H343ZM766 1244L382 1429L462 1545L811 1317L766 1244Z" />
<glyph unicode="&#xfa;" horiz-adv-x="1200" d="M343 1050V299Q343 187 390 136T541 84Q639 84 725 139T857 267V1050H981V0H877L863 147Q799 67 707 24T523 -20Q371 -20 295 59T219 284V1050H343ZM772 1571L836 1455L434 1290L392 1360L772 1571Z" />
<glyph unicode="&#xfb;" horiz-adv-x="1200" d="M343 1050V299Q343 187 390 136T541 84Q639 84 725 139T857 267V1050H981V0H877L863 147Q799 67 707 24T523 -20Q371 -20 295 59T219 284V1050H343ZM360 1268L290 1338L557 1563H646L911 1338L846 1268L603 1447L360 1268Z" />
<glyph unicode="&#xfc;" horiz-adv-x="1200" d="M343 1050V299Q343 187 390 136T541 84Q639 84 725 139T857 267V1050H981V0H877L863 147Q799 67 707 24T523 -20Q371 -20 295 59T219 284V1050H343ZM400 1303Q359 1303 333 1328T306 1393Q306 1434 332 1460T400
1486Q438 1486 464 1460T491 1393Q491 1354 465 1329T400 1303ZM797 1303Q758 1303 732 1328T706 1393Q706 1434 732 1460T797 1486Q838 1486 864 1460T891 1393Q891 1354 865 1329T797 1303Z" />
<glyph unicode="&#xfd;" horiz-adv-x="1200" d="M1057 1050L682 -9Q648 -106 598 -193T465 -340T249 -417L227 -309Q337 -289 399 -249T497 -147T561 0H520L143 1050H277L608 106L928 1050H1057ZM772 1571L836 1455L434 1290L392 1360L772 1571Z" />
<glyph unicode="&#xfe;" horiz-adv-x="1200" d="M343 1492V913Q404 989 484 1029T655 1069Q796 1069 879 1001T998 811T1034 525Q1034 367 991 244T858 51T629 -20Q450 -20 343 105V-401L219 -418V1475L343 1492ZM633 963Q536 963 462 905T343 780V236Q387 171
457 132T609 93Q755 93 826 200T898 527Q898 667 870 764T784 912T633 963Z" />
<glyph unicode="&#xff;" horiz-adv-x="1200" d="M1057 1050L682 -9Q648 -106 598 -193T465 -340T249 -417L227 -309Q337 -289 399 -249T497 -147T561 0H520L143 1050H277L608 106L928 1050H1057ZM400 1303Q359 1303 333 1328T306 1393Q306 1434 332 1460T400 1486Q438
1486 464 1460T491 1393Q491 1354 465 1329T400 1303ZM797 1303Q758 1303 732 1328T706 1393Q706 1434 732 1460T797 1486Q838 1486 864 1460T891 1393Q891 1354 865 1329T797 1303Z" />
<glyph unicode="&#x2013;" horiz-adv-x="1200" d="M68 568V684H1132V568H68Z" />
<glyph unicode="&#x2014;" horiz-adv-x="1200" d="M0 568V684H1200V568H0Z" />
<glyph unicode="&#x2018;" horiz-adv-x="1200" d="M723 1109Q723 1052 682 1013T582 974Q525 974 484 1013T443 1109Q443 1129 447 1153T470 1219L641 1578H757L677 1207Q698 1192 710 1166T723 1109Z" />
<glyph unicode="&#x2019;" horiz-adv-x="1200" d="M475 1442Q475 1499 518 1538T616 1578Q673 1578 715 1539T757 1442Q757 1418 752 1397T728 1333L557 974H441L521 1345Q500 1359 488 1386T475 1442Z" />
<glyph unicode="&#x201a;" horiz-adv-x="1200" d="M474 105Q474 162 517 201T615 240Q672 240 714 201T757 105Q757 81 752 59T727 -5L557 -364H441L520 7Q499 22 487 48T474 105Z" />
<glyph unicode="&#x201c;" horiz-adv-x="1200" d="M513 1109Q513 1052 471 1013T372 974Q312 974 272 1013T232 1109Q232 1129 236 1153T259 1219L427 1578H546L466 1207Q487 1192 500 1166T513 1109ZM934 1109Q934 1052 892 1013T793 974Q736 974 695 1013T654
1109Q654 1129 658 1153T681 1219L852 1578H968L889 1207Q910 1192 922 1166T934 1109Z" />
<glyph unicode="&#x201d;" horiz-adv-x="1200" d="M263 1434Q263 1491 305 1531T404 1571Q461 1571 503 1531T546 1434Q546 1411 540 1389T513 1326L345 966H229L306 1337Q287 1352 275 1379T263 1434ZM685 1434Q685 1491 728 1531T826 1571Q884 1571 926 1531T968
1434Q968 1411 963 1389T939 1326L768 966H652L731 1337Q710 1352 698 1379T685 1434Z" />
<glyph unicode="&#x201e;" horiz-adv-x="1200" d="M266 105Q266 162 308 201T407 240Q464 240 506 201T548 105Q548 81 543 59T519 -5L348 -364H232L311 7Q290 22 278 48T266 105ZM685 105Q685 162 728 201T826 240Q884 240 924 201T965 105Q965 81 961 57T939
-5L768 -364H652L731 7Q710 22 698 48T685 105Z" />
<glyph unicode="&#x2022;" horiz-adv-x="1200" d="M600 453Q534 453 482 483T400 565T369 684Q369 750 399 802T482 883T600 913Q666 913 718 883T801 801T831 682Q831 616 801 564T719 483T600 453Z" />
<glyph unicode="&#x2039;" horiz-adv-x="1200" d="M804 176L733 133L396 541V639L733 1051L804 1007L534 591L804 176Z" />
<glyph unicode="&#x203a;" horiz-adv-x="1200" d="M667 591L396 1007L468 1051L804 639V541L468 133L396 176L667 591Z" />
</font>
</defs>
</svg>
